<svg width="57pt" height="43pt" viewBox="0 0 57 43" xmlns="http://www.w3.org/2000/svg"><g id="fontsvg1725870477853" stroke-linecap="round" fill-rule="evenodd" fill="#808080"><path d="M 37.5 42.188 L 28.125 42.188 L 28.125 0 L 37.5 0 L 37.5 18.75 L 42.188 18.75 L 42.188 14.063 L 46.875 14.063 L 46.875 0 L 56.25 0 L 56.25 14.063 L 51.563 14.063 L 51.563 18.75 L 46.875 18.75 L 46.875 23.438 L 51.563 23.438 L 51.563 28.125 L 56.25 28.125 L 56.25 42.188 L 46.875 42.188 L 46.875 28.125 L 42.188 28.125 L 42.188 23.438 L 37.5 23.438 L 37.5 42.188 Z M 18.75 42.188 L 0 42.188 L 0 37.5 L 4.688 37.5 L 4.688 4.688 L 0 4.688 L 0 0 L 18.75 0 L 18.75 4.688 L 14.063 4.688 L 14.063 37.5 L 18.75 37.5 L 18.75 42.188 Z" vector-effect="non-scaling-stroke"/></g></svg>